<?xml version="1.0" encoding="UTF-8" standalone="no"?>
<!DOCTYPE svg PUBLIC "-//W3C//DTD SVG 1.1//EN"
 "http://www.w3.org/Graphics/SVG/1.1/DTD/svg11.dtd">
<!-- Generated by graphviz version 2.49.0 (20210828.1703)
 -->
<!-- Title: matchLD Pages: 1 -->
<svg width="614pt" height="116pt"
 viewBox="0.00 0.00 614.04 116.00" xmlns="http://www.w3.org/2000/svg" xmlns:xlink="http://www.w3.org/1999/xlink">
<g id="graph0" class="graph" transform="scale(1 1) rotate(0) translate(4 112)">
<title>matchLD</title>
<polygon fill="white" stroke="transparent" points="-4,4 -4,-112 610.04,-112 610.04,4 -4,4"/>
<!-- qryToolMatch -->
<g id="node1" class="node">
<title>qryToolMatch</title>
<ellipse fill="none" stroke="black" cx="124.25" cy="-90" rx="62.29" ry="18"/>
<text text-anchor="middle" x="124.25" y="-86.3" font-family="Times,serif" font-size="14.00">qryToolMatch</text>
</g>
<!-- FusekiTools -->
<g id="node2" class="node">
<title>FusekiTools</title>
<ellipse fill="none" stroke="black" cx="55.25" cy="-18" rx="55.49" ry="18"/>
<text text-anchor="middle" x="55.25" y="-14.3" font-family="Times,serif" font-size="14.00">FusekiTools</text>
</g>
<!-- qryToolMatch&#45;&gt;FusekiTools -->
<g id="edge1" class="edge">
<title>qryToolMatch&#45;&gt;FusekiTools</title>
<path fill="none" stroke="black" d="M107.89,-72.41C99.13,-63.52 88.18,-52.41 78.54,-42.63"/>
<polygon fill="black" stroke="black" points="80.99,-40.13 71.48,-35.47 76.01,-45.05 80.99,-40.13"/>
</g>
<!-- BlazeMainMD -->
<g id="node3" class="node">
<title>BlazeMainMD</title>
<ellipse fill="none" stroke="black" cx="193.25" cy="-18" rx="64.99" ry="18"/>
<text text-anchor="middle" x="193.25" y="-14.3" font-family="Times,serif" font-size="14.00">BlazeMainMD</text>
</g>
<!-- qryToolMatch&#45;&gt;BlazeMainMD -->
<g id="edge2" class="edge">
<title>qryToolMatch&#45;&gt;BlazeMainMD</title>
<path fill="none" stroke="black" d="M140.6,-72.41C149.36,-63.52 160.31,-52.41 169.95,-42.63"/>
<polygon fill="black" stroke="black" points="172.48,-45.05 177.01,-35.47 167.5,-40.13 172.48,-45.05"/>
</g>
<!-- qryToolMatch2 -->
<g id="node4" class="node">
<title>qryToolMatch2</title>
<ellipse fill="none" stroke="black" cx="359.25" cy="-90" rx="66.89" ry="18"/>
<text text-anchor="middle" x="359.25" y="-86.3" font-family="Times,serif" font-size="14.00">qryToolMatch2</text>
</g>
<!-- qryToolMatch2&#45;&gt;BlazeMainMD -->
<g id="edge3" class="edge">
<title>qryToolMatch2&#45;&gt;BlazeMainMD</title>
<path fill="none" stroke="black" d="M324.85,-74.5C299.28,-63.71 264.21,-48.92 236.7,-37.32"/>
<polygon fill="black" stroke="black" points="237.89,-34.03 227.31,-33.37 235.17,-40.48 237.89,-34.03"/>
</g>
<!-- NBlocalURNtriples -->
<g id="node5" class="node">
<title>NBlocalURNtriples</title>
<ellipse fill="none" stroke="black" cx="359.25" cy="-18" rx="83.39" ry="18"/>
<text text-anchor="middle" x="359.25" y="-14.3" font-family="Times,serif" font-size="14.00">NBlocalURNtriples</text>
</g>
<!-- qryToolMatch2&#45;&gt;NBlocalURNtriples -->
<g id="edge4" class="edge">
<title>qryToolMatch2&#45;&gt;NBlocalURNtriples</title>
<path fill="none" stroke="black" d="M359.25,-71.7C359.25,-63.98 359.25,-54.71 359.25,-46.11"/>
<polygon fill="black" stroke="black" points="362.75,-46.1 359.25,-36.1 355.75,-46.1 362.75,-46.1"/>
</g>
<!-- NBlocalRDFxml -->
<g id="node6" class="node">
<title>NBlocalRDFxml</title>
<ellipse fill="none" stroke="black" cx="533.25" cy="-18" rx="72.59" ry="18"/>
<text text-anchor="middle" x="533.25" y="-14.3" font-family="Times,serif" font-size="14.00">NBlocalRDFxml</text>
</g>
<!-- qryToolMatch2&#45;&gt;NBlocalRDFxml -->
<g id="edge5" class="edge">
<title>qryToolMatch2&#45;&gt;NBlocalRDFxml</title>
<path fill="none" stroke="black" d="M394.88,-74.67C421.59,-63.92 458.36,-49.13 487.28,-37.49"/>
<polygon fill="black" stroke="black" points="488.79,-40.66 496.76,-33.68 486.18,-34.16 488.79,-40.66"/>
</g>
</g>
</svg>
