<?xml version="1.0" encoding="UTF-8" standalone="no"?>
<!DOCTYPE svg PUBLIC "-//W3C//DTD SVG 1.1//EN"
 "http://www.w3.org/Graphics/SVG/1.1/DTD/svg11.dtd">
<!-- Generated by graphviz version 2.49.0 (20210828.1703)
 -->
<!-- Title: matchLD Pages: 1 -->
<svg width="614pt" height="116pt"
 viewBox="0.00 0.00 613.79 116.00" xmlns="http://www.w3.org/2000/svg" xmlns:xlink="http://www.w3.org/1999/xlink">
<g id="graph0" class="graph" transform="scale(1 1) rotate(0) translate(4 112)">
<title>matchLD</title>
<polygon fill="white" stroke="transparent" points="-4,4 -4,-112 609.79,-112 609.79,4 -4,4"/>
<!-- qryToolMatch -->
<g id="node1" class="node">
<title>qryToolMatch</title>
<ellipse fill="none" stroke="black" cx="228.99" cy="-90" rx="62.29" ry="18"/>
<text text-anchor="middle" x="228.99" y="-86.3" font-family="Times,serif" font-size="14.00">qryToolMatch</text>
</g>
<!-- BlazeMainMD -->
<g id="node2" class="node">
<title>BlazeMainMD</title>
<ellipse fill="none" stroke="black" cx="64.99" cy="-18" rx="64.99" ry="18"/>
<text text-anchor="middle" x="64.99" y="-14.3" font-family="Times,serif" font-size="14.00">BlazeMainMD</text>
</g>
<!-- qryToolMatch&#45;&gt;BlazeMainMD -->
<g id="edge1" class="edge">
<title>qryToolMatch&#45;&gt;BlazeMainMD</title>
<path fill="none" stroke="black" d="M195.41,-74.67C170.18,-63.9 135.42,-49.06 108.13,-37.41"/>
<polygon fill="black" stroke="black" points="109.39,-34.14 98.81,-33.44 106.64,-40.58 109.39,-34.14"/>
</g>
<!-- FusekiTools -->
<g id="node3" class="node">
<title>FusekiTools</title>
<ellipse fill="none" stroke="black" cx="386.99" cy="-18" rx="55.49" ry="18"/>
<text text-anchor="middle" x="386.99" y="-14.3" font-family="Times,serif" font-size="14.00">FusekiTools</text>
</g>
<!-- qryToolMatch&#45;&gt;FusekiTools -->
<g id="edge2" class="edge">
<title>qryToolMatch&#45;&gt;FusekiTools</title>
<path fill="none" stroke="black" d="M261.73,-74.5C286.29,-63.62 320.04,-48.66 346.33,-37.02"/>
<polygon fill="black" stroke="black" points="347.92,-40.14 355.64,-32.89 345.08,-33.74 347.92,-40.14"/>
</g>
<!-- qryToolMatch2 -->
<g id="node4" class="node">
<title>qryToolMatch2</title>
<ellipse fill="none" stroke="black" cx="386.99" cy="-90" rx="66.89" ry="18"/>
<text text-anchor="middle" x="386.99" y="-86.3" font-family="Times,serif" font-size="14.00">qryToolMatch2</text>
</g>
<!-- qryToolMatch2&#45;&gt;FusekiTools -->
<g id="edge3" class="edge">
<title>qryToolMatch2&#45;&gt;FusekiTools</title>
<path fill="none" stroke="black" d="M386.99,-71.7C386.99,-63.98 386.99,-54.71 386.99,-46.11"/>
<polygon fill="black" stroke="black" points="390.49,-46.1 386.99,-36.1 383.49,-46.1 390.49,-46.1"/>
</g>
<!-- NBlocalURNtriples -->
<g id="node5" class="node">
<title>NBlocalURNtriples</title>
<ellipse fill="none" stroke="black" cx="230.99" cy="-18" rx="83.39" ry="18"/>
<text text-anchor="middle" x="230.99" y="-14.3" font-family="Times,serif" font-size="14.00">NBlocalURNtriples</text>
</g>
<!-- qryToolMatch2&#45;&gt;NBlocalURNtriples -->
<g id="edge4" class="edge">
<title>qryToolMatch2&#45;&gt;NBlocalURNtriples</title>
<path fill="none" stroke="black" d="M353.91,-74.15C330.83,-63.8 299.8,-49.87 274.69,-38.6"/>
<polygon fill="black" stroke="black" points="275.94,-35.33 265.38,-34.43 273.07,-41.72 275.94,-35.33"/>
</g>
<!-- NBlocalRDFxml -->
<g id="node6" class="node">
<title>NBlocalRDFxml</title>
<ellipse fill="none" stroke="black" cx="532.99" cy="-18" rx="72.59" ry="18"/>
<text text-anchor="middle" x="532.99" y="-14.3" font-family="Times,serif" font-size="14.00">NBlocalRDFxml</text>
</g>
<!-- qryToolMatch2&#45;&gt;NBlocalRDFxml -->
<g id="edge5" class="edge">
<title>qryToolMatch2&#45;&gt;NBlocalRDFxml</title>
<path fill="none" stroke="black" d="M418.31,-73.98C439.82,-63.67 468.58,-49.88 491.92,-38.69"/>
<polygon fill="black" stroke="black" points="493.72,-41.71 501.22,-34.23 490.69,-35.4 493.72,-41.71"/>
</g>
<!-- qryRelated -->
<g id="node7" class="node">
<title>qryRelated</title>
<ellipse fill="none" stroke="black" cx="75.99" cy="-90" rx="50.89" ry="18"/>
<text text-anchor="middle" x="75.99" y="-86.3" font-family="Times,serif" font-size="14.00">qryRelated</text>
</g>
<!-- qryRelated&#45;&gt;BlazeMainMD -->
<g id="edge6" class="edge">
<title>qryRelated&#45;&gt;BlazeMainMD</title>
<path fill="none" stroke="black" d="M73.28,-71.7C72.06,-63.98 70.61,-54.71 69.25,-46.11"/>
<polygon fill="black" stroke="black" points="72.69,-45.44 67.68,-36.1 65.78,-46.53 72.69,-45.44"/>
</g>
<!-- qryRelated&#45;&gt;NBlocalURNtriples -->
<g id="edge7" class="edge">
<title>qryRelated&#45;&gt;NBlocalURNtriples</title>
<path fill="none" stroke="black" d="M106.25,-75.34C129.39,-64.88 161.64,-50.32 187.54,-38.62"/>
<polygon fill="black" stroke="black" points="189.1,-41.76 196.77,-34.46 186.22,-35.38 189.1,-41.76"/>
</g>
</g>
</svg>
