<?xml version="1.0" encoding="UTF-8" standalone="no"?>
<!DOCTYPE svg PUBLIC "-//W3C//DTD SVG 1.1//EN"
 "http://www.w3.org/Graphics/SVG/1.1/DTD/svg11.dtd">
<!-- Generated by graphviz version 2.40.1 (20161225.0304)
 -->
<!-- Title: cliCrawl Pages: 1 -->
<svg width="289pt" height="538pt"
 viewBox="0.00 0.00 289.19 538.00" xmlns="http://www.w3.org/2000/svg" xmlns:xlink="http://www.w3.org/1999/xlink">
<g id="graph0" class="graph" transform="scale(1 1) rotate(0) translate(4 534)">
<title>cliCrawl</title>
<polygon fill="#ffffff" stroke="transparent" points="-4,4 -4,-534 285.1938,-534 285.1938,4 -4,4"/>
<!-- clowder -->
<g id="node1" class="node">
<title>clowder</title>
<g id="a_node1"><a xlink:href="https://earthcube.clowderframework.org/" xlink:title="clowder">
<ellipse fill="none" stroke="#000000" cx="77.1471" cy="-105" rx="38.9931" ry="18"/>
<text text-anchor="middle" x="77.1471" y="-101.3" font-family="Times,serif" font-size="14.00" fill="#000000">clowder</text>
</a>
</g>
</g>
<!-- search -->
<g id="node2" class="node">
<title>search</title>
<g id="a_node2"><a xlink:href="https://alpha.geocodes.earthcube.org/" xlink:title="search">
<ellipse fill="none" stroke="#000000" cx="33.1471" cy="-192" rx="33.2948" ry="18"/>
<text text-anchor="middle" x="33.1471" y="-188.3" font-family="Times,serif" font-size="14.00" fill="#000000">search</text>
</a>
</g>
</g>
<!-- search&#45;&gt;clowder -->
<g id="edge10" class="edge">
<title>search&#45;&gt;clowder</title>
<path fill="none" stroke="#000000" d="M41.0789,-174.3917C45.6231,-164.4996 51.5249,-151.9734 57.1471,-141 58.7608,-137.8502 60.4983,-134.5725 62.2512,-131.3342"/>
<polygon fill="#000000" stroke="#000000" points="65.3852,-132.8988 67.1428,-122.4508 59.2533,-129.5223 65.3852,-132.8988"/>
<text text-anchor="middle" x="63.1471" y="-144.8" font-family="Times,serif" font-size="14.00" fill="#000000">or</text>
</g>
<!-- triplestore -->
<g id="node6" class="node">
<title>triplestore</title>
<g id="a_node6"><a xlink:href="https://graph.geodex.org/blazegraph/#query" xlink:title="triplestore">
<ellipse fill="none" stroke="#000000" cx="152.1471" cy="-18" rx="46.2923" ry="18"/>
<text text-anchor="middle" x="152.1471" y="-14.3" font-family="Times,serif" font-size="14.00" fill="#000000">triplestore</text>
</a>
</g>
</g>
<!-- search&#45;&gt;triplestore -->
<g id="edge11" class="edge">
<title>search&#45;&gt;triplestore</title>
<path fill="none" stroke="#000000" d="M21.7902,-174.685C8.9538,-152.7173 -8.0536,-114.3979 9.1471,-87 29.0711,-55.2642 68.1568,-37.7764 100.4365,-28.3536"/>
<polygon fill="#000000" stroke="#000000" points="101.4846,-31.6956 110.207,-25.6814 99.6379,-24.9435 101.4846,-31.6956"/>
<text text-anchor="middle" x="19.1471" y="-101.3" font-family="Times,serif" font-size="14.00" fill="#000000">and</text>
</g>
<!-- ntriples -->
<g id="node3" class="node">
<title>ntriples</title>
<g id="a_node3"><a xlink:href="https://www.w3.org/TR/n-triples/" xlink:title="ntriples">
<ellipse fill="none" stroke="#000000" cx="244.1471" cy="-105" rx="37.0935" ry="18"/>
<text text-anchor="middle" x="244.1471" y="-101.3" font-family="Times,serif" font-size="14.00" fill="#000000">ntriples</text>
</a>
</g>
</g>
<!-- ntriples&#45;&gt;triplestore -->
<g id="edge7" class="edge">
<title>ntriples&#45;&gt;triplestore</title>
<g id="a_edge7"><a xlink:href="https://graph.geodex.org/blazegraph/#update" xlink:title="import">
<path fill="none" stroke="#000000" d="M226.8426,-88.636C212.8864,-75.4383 193.0627,-56.692 177.3443,-41.8278"/>
<polygon fill="#000000" stroke="#000000" points="179.6721,-39.212 170.0015,-34.8841 174.8625,-44.298 179.6721,-39.212"/>
</a>
</g>
<g id="a_edge7&#45;label"><a xlink:href="https://graph.geodex.org/blazegraph/#update" xlink:title="import">
<text text-anchor="middle" x="222.6471" y="-57.8" font-family="Times,serif" font-size="14.00" fill="#000000">import</text>
</a>
</g>
</g>
<!-- jsonld -->
<g id="node4" class="node">
<title>jsonld</title>
<g id="a_node4"><a xlink:href="https://json-ld.org/playground/" xlink:title="jsonld">
<ellipse fill="none" stroke="#000000" cx="162.1471" cy="-192" rx="32.4942" ry="18"/>
<text text-anchor="middle" x="162.1471" y="-188.3" font-family="Times,serif" font-size="14.00" fill="#000000">jsonld</text>
</a>
</g>
</g>
<!-- jsonld&#45;&gt;clowder -->
<g id="edge9" class="edge">
<title>jsonld&#45;&gt;clowder</title>
<g id="a_edge9"><a xlink:href="https://github.com/MBcode/ec/blob/master/clowder/jsonLD2dataset.py" xlink:title="assert">
<path fill="none" stroke="#000000" d="M138.1644,-179.588C127.804,-173.4423 116.0451,-165.3342 107.1471,-156 100.4523,-148.9771 94.6138,-140.1938 89.9111,-131.9053"/>
<polygon fill="#000000" stroke="#000000" points="92.8916,-130.056 85.0991,-122.8777 86.7143,-133.3487 92.8916,-130.056"/>
</a>
</g>
<g id="a_edge9&#45;label"><a xlink:href="https://github.com/MBcode/ec/blob/master/clowder/jsonLD2dataset.py" xlink:title="assert">
<text text-anchor="middle" x="122.6471" y="-144.8" font-family="Times,serif" font-size="14.00" fill="#000000">assert</text>
</a>
</g>
</g>
<!-- jsonld&#45;&gt;ntriples -->
<g id="edge6" class="edge">
<title>jsonld&#45;&gt;ntriples</title>
<g id="a_edge6"><a xlink:href="https://jena.apache.org/documentation/io/rdf-output.html" xlink:title="riot">
<path fill="none" stroke="#000000" d="M174.7947,-175.394C182.8392,-165.1559 193.6785,-151.9384 204.1471,-141 208.3681,-136.5895 213.0404,-132.085 217.6586,-127.822"/>
<polygon fill="#000000" stroke="#000000" points="220.2114,-130.2328 225.2903,-120.9347 215.5215,-125.0361 220.2114,-130.2328"/>
</a>
</g>
<g id="a_edge6&#45;label"><a xlink:href="https://jena.apache.org/documentation/io/rdf-output.html" xlink:title="riot">
<text text-anchor="middle" x="213.6471" y="-144.8" font-family="Times,serif" font-size="14.00" fill="#000000">riot</text>
</a>
</g>
</g>
<!-- jsonld&#45;&gt;triplestore -->
<g id="edge8" class="edge">
<title>jsonld&#45;&gt;triplestore</title>
<path fill="none" stroke="#000000" d="M161.0958,-173.7078C159.3507,-143.3436 155.8438,-82.3226 153.7762,-46.3464"/>
<polygon fill="#000000" stroke="#000000" points="157.2523,-45.8298 153.1842,-36.0471 150.2639,-46.2315 157.2523,-45.8298"/>
<text text-anchor="middle" x="176.6471" y="-101.3" font-family="Times,serif" font-size="14.00" fill="#000000">maybe</text>
</g>
<!-- CDF -->
<g id="node5" class="node">
<title>CDF</title>
<g id="a_node5"><a xlink:href="https://www.earthcube.org/council-of-data-facilities" xlink:title="CDF">
<ellipse fill="none" stroke="#000000" cx="208.1471" cy="-512" rx="27.8951" ry="18"/>
<text text-anchor="middle" x="208.1471" y="-508.3" font-family="Times,serif" font-size="14.00" fill="#000000">CDF</text>
</a>
</g>
</g>
<!-- sitemaps -->
<g id="node7" class="node">
<title>sitemaps</title>
<g id="a_node7"><a xlink:href="https://github.com/MBcode/ec/blob/master/crawl/CDF_Sites.csv" xlink:title="sitemaps">
<ellipse fill="none" stroke="#000000" cx="208.1471" cy="-439" rx="42.4939" ry="18"/>
<text text-anchor="middle" x="208.1471" y="-435.3" font-family="Times,serif" font-size="14.00" fill="#000000">sitemaps</text>
</a>
</g>
</g>
<!-- CDF&#45;&gt;sitemaps -->
<g id="edge1" class="edge">
<title>CDF&#45;&gt;sitemaps</title>
<path fill="none" stroke="#000000" d="M208.1471,-493.9551C208.1471,-485.8828 208.1471,-476.1764 208.1471,-467.1817"/>
<polygon fill="#000000" stroke="#000000" points="211.6472,-467.0903 208.1471,-457.0904 204.6472,-467.0904 211.6472,-467.0903"/>
</g>
<!-- URLs -->
<g id="node8" class="node">
<title>URLs</title>
<ellipse fill="none" stroke="#000000" cx="208.1471" cy="-366" rx="31.6951" ry="18"/>
<text text-anchor="middle" x="208.1471" y="-362.3" font-family="Times,serif" font-size="14.00" fill="#000000">URLs</text>
</g>
<!-- sitemaps&#45;&gt;URLs -->
<g id="edge2" class="edge">
<title>sitemaps&#45;&gt;URLs</title>
<path fill="none" stroke="#000000" d="M208.1471,-420.9551C208.1471,-412.8828 208.1471,-403.1764 208.1471,-394.1817"/>
<polygon fill="#000000" stroke="#000000" points="211.6472,-394.0903 208.1471,-384.0904 204.6472,-394.0904 211.6472,-394.0903"/>
</g>
<!-- URLs&#45;&gt;ntriples -->
<g id="edge3" class="edge">
<title>URLs&#45;&gt;ntriples</title>
<g id="a_edge3"><a xlink:href="https://any23.apache.org/getting-started.html" xlink:title="rover">
<path fill="none" stroke="#000000" d="M216.7184,-348.4166C219.1792,-342.6705 221.6099,-336.1762 223.1471,-330 240.3986,-260.6842 243.7334,-176.1548 244.2208,-133.1135"/>
<polygon fill="#000000" stroke="#000000" points="247.7207,-133.1232 244.29,-123.0991 240.7208,-133.0746 247.7207,-133.1232"/>
</a>
</g>
<g id="a_edge3&#45;label"><a xlink:href="https://any23.apache.org/getting-started.html" xlink:title="rover">
<text text-anchor="middle" x="254.6471" y="-231.8" font-family="Times,serif" font-size="14.00" fill="#000000">rover</text>
</a>
</g>
</g>
<!-- js -->
<g id="node9" class="node">
<title>js</title>
<ellipse fill="none" stroke="#000000" cx="179.1471" cy="-279" rx="27" ry="18"/>
<text text-anchor="middle" x="179.1471" y="-275.3" font-family="Times,serif" font-size="14.00" fill="#000000">js</text>
</g>
<!-- URLs&#45;&gt;js -->
<g id="edge4" class="edge">
<title>URLs&#45;&gt;js</title>
<g id="a_edge4"><a xlink:href="https://github.com/scrapinghub/extruct" xlink:title="extruct">
<path fill="none" stroke="#000000" d="M195.2291,-349.2489C191.3731,-343.4446 187.5404,-336.7057 185.1471,-330 182.6213,-322.9234 181.1083,-314.9785 180.215,-307.5041"/>
<polygon fill="#000000" stroke="#000000" points="183.6882,-307.0446 179.3237,-297.3905 176.7152,-307.6592 183.6882,-307.0446"/>
</a>
</g>
<g id="a_edge4&#45;label"><a xlink:href="https://github.com/scrapinghub/extruct" xlink:title="extruct">
<text text-anchor="middle" x="204.1471" y="-318.8" font-family="Times,serif" font-size="14.00" fill="#000000">extruct</text>
</a>
</g>
</g>
<!-- js&#45;&gt;jsonld -->
<g id="edge5" class="edge">
<title>js&#45;&gt;jsonld</title>
<g id="a_edge5"><a xlink:href="https://stedolan.github.io/jq/" xlink:title="jq">
<path fill="none" stroke="#000000" d="M175.6246,-260.9735C173.3225,-249.1918 170.2681,-233.5607 167.6492,-220.1581"/>
<polygon fill="#000000" stroke="#000000" points="171.0178,-219.1465 165.665,-210.0034 164.1478,-220.489 171.0178,-219.1465"/>
</a>
</g>
<g id="a_edge5&#45;label"><a xlink:href="https://stedolan.github.io/jq/" xlink:title="jq">
<text text-anchor="middle" x="177.6471" y="-231.8" font-family="Times,serif" font-size="14.00" fill="#000000">jq</text>
</a>
</g>
</g>
</g>
</svg>
