<?xml version="1.0" encoding="UTF-8" standalone="no"?>
<!DOCTYPE svg PUBLIC "-//W3C//DTD SVG 1.1//EN"
 "http://www.w3.org/Graphics/SVG/1.1/DTD/svg11.dtd">
<!-- Generated by graphviz version 2.40.1 (20161225.0304)
 -->
<!-- Title: cliCrawl Pages: 1 -->
<svg width="284pt" height="538pt"
 viewBox="0.00 0.00 284.19 538.00" xmlns="http://www.w3.org/2000/svg" xmlns:xlink="http://www.w3.org/1999/xlink">
<g id="graph0" class="graph" transform="scale(1 1) rotate(0) translate(4 534)">
<title>cliCrawl</title>
<polygon fill="#ffffff" stroke="transparent" points="-4,4 -4,-534 280.1938,-534 280.1938,4 -4,4"/>
<!-- clowder -->
<g id="node1" class="node">
<title>clowder</title>
<g id="a_node1"><a xlink:href="https://earthcube.clowderframework.org/" xlink:title="clowder">
<ellipse fill="none" stroke="#000000" cx="72.1471" cy="-105" rx="38.9931" ry="18"/>
<text text-anchor="middle" x="72.1471" y="-101.3" font-family="Times,serif" font-size="14.00" fill="#000000">clowder</text>
</a>
</g>
</g>
<!-- search -->
<g id="node2" class="node">
<title>search</title>
<g id="a_node2"><a xlink:href="https://alpha.geocodes.earthcube.org/" xlink:title="search">
<ellipse fill="none" stroke="#000000" cx="33.1471" cy="-192" rx="33.2948" ry="18"/>
<text text-anchor="middle" x="33.1471" y="-188.3" font-family="Times,serif" font-size="14.00" fill="#000000">search</text>
</a>
</g>
</g>
<!-- search&#45;&gt;clowder -->
<g id="edge10" class="edge">
<title>search&#45;&gt;clowder</title>
<path fill="none" stroke="#000000" d="M41.0393,-174.3943C46.4482,-162.3281 53.7306,-146.0828 59.8895,-132.3438"/>
<polygon fill="#000000" stroke="#000000" points="63.2359,-133.435 64.1327,-122.8782 56.8483,-130.5716 63.2359,-133.435"/>
</g>
<!-- triplestore -->
<g id="node6" class="node">
<title>triplestore</title>
<g id="a_node6"><a xlink:href="https://graph.geodex.org/blazegraph/#query" xlink:title="triplestore">
<ellipse fill="none" stroke="#000000" cx="147.1471" cy="-18" rx="46.2923" ry="18"/>
<text text-anchor="middle" x="147.1471" y="-14.3" font-family="Times,serif" font-size="14.00" fill="#000000">triplestore</text>
</a>
</g>
</g>
<!-- search&#45;&gt;triplestore -->
<g id="edge11" class="edge">
<title>search&#45;&gt;triplestore</title>
<path fill="none" stroke="#000000" d="M22.6623,-174.6958C10.8521,-152.7396 -4.6398,-114.4323 12.1471,-87 30.5568,-56.9156 66.6812,-39.4208 96.9317,-29.5786"/>
<polygon fill="#000000" stroke="#000000" points="97.9787,-32.9185 106.517,-26.6457 95.9305,-26.2248 97.9787,-32.9185"/>
<text text-anchor="middle" x="18.1471" y="-101.3" font-family="Times,serif" font-size="14.00" fill="#000000">or</text>
</g>
<!-- ntriples -->
<g id="node3" class="node">
<title>ntriples</title>
<g id="a_node3"><a xlink:href="https://www.w3.org/TR/n-triples/" xlink:title="ntriples">
<ellipse fill="none" stroke="#000000" cx="239.1471" cy="-105" rx="37.0935" ry="18"/>
<text text-anchor="middle" x="239.1471" y="-101.3" font-family="Times,serif" font-size="14.00" fill="#000000">ntriples</text>
</a>
</g>
</g>
<!-- ntriples&#45;&gt;triplestore -->
<g id="edge7" class="edge">
<title>ntriples&#45;&gt;triplestore</title>
<g id="a_edge7"><a xlink:href="https://graph.geodex.org/blazegraph/#update" xlink:title="import">
<path fill="none" stroke="#000000" d="M221.8426,-88.636C207.8864,-75.4383 188.0627,-56.692 172.3443,-41.8278"/>
<polygon fill="#000000" stroke="#000000" points="174.6721,-39.212 165.0015,-34.8841 169.8625,-44.298 174.6721,-39.212"/>
</a>
</g>
<g id="a_edge7&#45;label"><a xlink:href="https://graph.geodex.org/blazegraph/#update" xlink:title="import">
<text text-anchor="middle" x="217.6471" y="-57.8" font-family="Times,serif" font-size="14.00" fill="#000000">import</text>
</a>
</g>
</g>
<!-- jsonld -->
<g id="node4" class="node">
<title>jsonld</title>
<g id="a_node4"><a xlink:href="https://json-ld.org/playground/" xlink:title="jsonld">
<ellipse fill="none" stroke="#000000" cx="157.1471" cy="-192" rx="32.4942" ry="18"/>
<text text-anchor="middle" x="157.1471" y="-188.3" font-family="Times,serif" font-size="14.00" fill="#000000">jsonld</text>
</a>
</g>
</g>
<!-- jsonld&#45;&gt;clowder -->
<g id="edge9" class="edge">
<title>jsonld&#45;&gt;clowder</title>
<g id="a_edge9"><a xlink:href="https://github.com/MBcode/ec/blob/master/clowder/jsonLD2dataset.py" xlink:title="assert">
<path fill="none" stroke="#000000" d="M133.1644,-179.588C122.804,-173.4423 111.0451,-165.3342 102.1471,-156 95.4523,-148.9771 89.6138,-140.1938 84.9111,-131.9053"/>
<polygon fill="#000000" stroke="#000000" points="87.8916,-130.056 80.0991,-122.8777 81.7143,-133.3487 87.8916,-130.056"/>
</a>
</g>
<g id="a_edge9&#45;label"><a xlink:href="https://github.com/MBcode/ec/blob/master/clowder/jsonLD2dataset.py" xlink:title="assert">
<text text-anchor="middle" x="117.6471" y="-144.8" font-family="Times,serif" font-size="14.00" fill="#000000">assert</text>
</a>
</g>
</g>
<!-- jsonld&#45;&gt;ntriples -->
<g id="edge6" class="edge">
<title>jsonld&#45;&gt;ntriples</title>
<g id="a_edge6"><a xlink:href="https://jena.apache.org/documentation/io/rdf-output.html" xlink:title="riot">
<path fill="none" stroke="#000000" d="M169.7947,-175.394C177.8392,-165.1559 188.6785,-151.9384 199.1471,-141 203.3681,-136.5895 208.0404,-132.085 212.6586,-127.822"/>
<polygon fill="#000000" stroke="#000000" points="215.2114,-130.2328 220.2903,-120.9347 210.5215,-125.0361 215.2114,-130.2328"/>
</a>
</g>
<g id="a_edge6&#45;label"><a xlink:href="https://jena.apache.org/documentation/io/rdf-output.html" xlink:title="riot">
<text text-anchor="middle" x="208.6471" y="-144.8" font-family="Times,serif" font-size="14.00" fill="#000000">riot</text>
</a>
</g>
</g>
<!-- jsonld&#45;&gt;triplestore -->
<g id="edge8" class="edge">
<title>jsonld&#45;&gt;triplestore</title>
<path fill="none" stroke="#000000" d="M156.0958,-173.7078C154.3507,-143.3436 150.8438,-82.3226 148.7762,-46.3464"/>
<polygon fill="#000000" stroke="#000000" points="152.2523,-45.8298 148.1842,-36.0471 145.2639,-46.2315 152.2523,-45.8298"/>
<text text-anchor="middle" x="171.6471" y="-101.3" font-family="Times,serif" font-size="14.00" fill="#000000">maybe</text>
</g>
<!-- CDF -->
<g id="node5" class="node">
<title>CDF</title>
<g id="a_node5"><a xlink:href="https://www.earthcube.org/council-of-data-facilities" xlink:title="CDF">
<ellipse fill="none" stroke="#000000" cx="203.1471" cy="-512" rx="27.8951" ry="18"/>
<text text-anchor="middle" x="203.1471" y="-508.3" font-family="Times,serif" font-size="14.00" fill="#000000">CDF</text>
</a>
</g>
</g>
<!-- sitemaps -->
<g id="node7" class="node">
<title>sitemaps</title>
<g id="a_node7"><a xlink:href="https://github.com/MBcode/ec/blob/master/crawl/CDF_Sites.csv" xlink:title="sitemaps">
<ellipse fill="none" stroke="#000000" cx="203.1471" cy="-439" rx="42.4939" ry="18"/>
<text text-anchor="middle" x="203.1471" y="-435.3" font-family="Times,serif" font-size="14.00" fill="#000000">sitemaps</text>
</a>
</g>
</g>
<!-- CDF&#45;&gt;sitemaps -->
<g id="edge1" class="edge">
<title>CDF&#45;&gt;sitemaps</title>
<path fill="none" stroke="#000000" d="M203.1471,-493.9551C203.1471,-485.8828 203.1471,-476.1764 203.1471,-467.1817"/>
<polygon fill="#000000" stroke="#000000" points="206.6472,-467.0903 203.1471,-457.0904 199.6472,-467.0904 206.6472,-467.0903"/>
</g>
<!-- URLs -->
<g id="node8" class="node">
<title>URLs</title>
<ellipse fill="none" stroke="#000000" cx="203.1471" cy="-366" rx="31.6951" ry="18"/>
<text text-anchor="middle" x="203.1471" y="-362.3" font-family="Times,serif" font-size="14.00" fill="#000000">URLs</text>
</g>
<!-- sitemaps&#45;&gt;URLs -->
<g id="edge2" class="edge">
<title>sitemaps&#45;&gt;URLs</title>
<path fill="none" stroke="#000000" d="M203.1471,-420.9551C203.1471,-412.8828 203.1471,-403.1764 203.1471,-394.1817"/>
<polygon fill="#000000" stroke="#000000" points="206.6472,-394.0903 203.1471,-384.0904 199.6472,-394.0904 206.6472,-394.0903"/>
</g>
<!-- URLs&#45;&gt;ntriples -->
<g id="edge3" class="edge">
<title>URLs&#45;&gt;ntriples</title>
<g id="a_edge3"><a xlink:href="https://any23.apache.org/getting-started.html" xlink:title="rover">
<path fill="none" stroke="#000000" d="M211.7184,-348.4166C214.1792,-342.6705 216.6099,-336.1762 218.1471,-330 235.3986,-260.6842 238.7334,-176.1548 239.2208,-133.1135"/>
<polygon fill="#000000" stroke="#000000" points="242.7207,-133.1232 239.29,-123.0991 235.7208,-133.0746 242.7207,-133.1232"/>
</a>
</g>
<g id="a_edge3&#45;label"><a xlink:href="https://any23.apache.org/getting-started.html" xlink:title="rover">
<text text-anchor="middle" x="249.6471" y="-231.8" font-family="Times,serif" font-size="14.00" fill="#000000">rover</text>
</a>
</g>
</g>
<!-- js -->
<g id="node9" class="node">
<title>js</title>
<ellipse fill="none" stroke="#000000" cx="174.1471" cy="-279" rx="27" ry="18"/>
<text text-anchor="middle" x="174.1471" y="-275.3" font-family="Times,serif" font-size="14.00" fill="#000000">js</text>
</g>
<!-- URLs&#45;&gt;js -->
<g id="edge4" class="edge">
<title>URLs&#45;&gt;js</title>
<g id="a_edge4"><a xlink:href="https://github.com/scrapinghub/extruct" xlink:title="extruct">
<path fill="none" stroke="#000000" d="M190.2291,-349.2489C186.3731,-343.4446 182.5404,-336.7057 180.1471,-330 177.6213,-322.9234 176.1083,-314.9785 175.215,-307.5041"/>
<polygon fill="#000000" stroke="#000000" points="178.6882,-307.0446 174.3237,-297.3905 171.7152,-307.6592 178.6882,-307.0446"/>
</a>
</g>
<g id="a_edge4&#45;label"><a xlink:href="https://github.com/scrapinghub/extruct" xlink:title="extruct">
<text text-anchor="middle" x="199.1471" y="-318.8" font-family="Times,serif" font-size="14.00" fill="#000000">extruct</text>
</a>
</g>
</g>
<!-- js&#45;&gt;jsonld -->
<g id="edge5" class="edge">
<title>js&#45;&gt;jsonld</title>
<g id="a_edge5"><a xlink:href="https://stedolan.github.io/jq/" xlink:title="jq">
<path fill="none" stroke="#000000" d="M170.6246,-260.9735C168.3225,-249.1918 165.2681,-233.5607 162.6492,-220.1581"/>
<polygon fill="#000000" stroke="#000000" points="166.0178,-219.1465 160.665,-210.0034 159.1478,-220.489 166.0178,-219.1465"/>
</a>
</g>
<g id="a_edge5&#45;label"><a xlink:href="https://stedolan.github.io/jq/" xlink:title="jq">
<text text-anchor="middle" x="172.6471" y="-231.8" font-family="Times,serif" font-size="14.00" fill="#000000">jq</text>
</a>
</g>
</g>
</g>
</svg>
