<?xml version="1.0" encoding="UTF-8" standalone="no"?>
<!DOCTYPE svg PUBLIC "-//W3C//DTD SVG 1.1//EN"
 "http://www.w3.org/Graphics/SVG/1.1/DTD/svg11.dtd">
<!-- Generated by graphviz version 2.43.0 (0)
 -->
<!-- Title: cliCrawl Pages: 1 -->
<svg width="387pt" height="451pt"
 viewBox="0.00 0.00 386.74 451.00" xmlns="http://www.w3.org/2000/svg" xmlns:xlink="http://www.w3.org/1999/xlink">
<g id="graph0" class="graph" transform="scale(1 1) rotate(0) translate(4 447)">
<title>cliCrawl</title>
<polygon fill="white" stroke="transparent" points="-4,4 -4,-447 382.74,-447 382.74,4 -4,4"/>
<!-- CDF -->
<g id="node1" class="node">
<title>CDF</title>
<ellipse fill="none" stroke="black" cx="205.1" cy="-425" rx="31.4" ry="18"/>
<text text-anchor="middle" x="205.1" y="-421.3" font-family="Times,serif" font-size="14.00">CDF</text>
</g>
<!-- sitemaps -->
<g id="node2" class="node">
<title>sitemaps</title>
<ellipse fill="none" stroke="black" cx="146.1" cy="-352" rx="52.79" ry="18"/>
<text text-anchor="middle" x="146.1" y="-348.3" font-family="Times,serif" font-size="14.00">sitemaps</text>
</g>
<!-- CDF&#45;&gt;sitemaps -->
<g id="edge1" class="edge">
<title>CDF&#45;&gt;sitemaps</title>
<path fill="none" stroke="black" d="M192,-408.24C184.5,-399.22 174.93,-387.69 166.46,-377.51"/>
<polygon fill="black" stroke="black" points="169.06,-375.16 159.98,-369.7 163.67,-379.63 169.06,-375.16"/>
</g>
<!-- annotation -->
<g id="node8" class="node">
<title>annotation</title>
<ellipse fill="none" stroke="black" cx="170.1" cy="-105" rx="60.39" ry="18"/>
<text text-anchor="middle" x="170.1" y="-101.3" font-family="Times,serif" font-size="14.00">annotation</text>
</g>
<!-- CDF&#45;&gt;annotation -->
<g id="edge10" class="edge">
<title>CDF&#45;&gt;annotation</title>
<path fill="none" stroke="black" d="M214.78,-407.69C222.17,-393.68 231.1,-372.69 231.1,-353 231.1,-353 231.1,-353 231.1,-191 231.1,-166.81 214.58,-144.78 198.74,-129.21"/>
<polygon fill="black" stroke="black" points="200.8,-126.35 191.09,-122.11 196.03,-131.48 200.8,-126.35"/>
<text text-anchor="middle" x="260.1" y="-275.3" font-family="Times,serif" font-size="14.00">repoMD</text>
</g>
<!-- URLs -->
<g id="node3" class="node">
<title>URLs</title>
<ellipse fill="none" stroke="black" cx="132.1" cy="-279" rx="36.29" ry="18"/>
<text text-anchor="middle" x="132.1" y="-275.3" font-family="Times,serif" font-size="14.00">URLs</text>
</g>
<!-- sitemaps&#45;&gt;URLs -->
<g id="edge2" class="edge">
<title>sitemaps&#45;&gt;URLs</title>
<path fill="none" stroke="black" d="M142.71,-333.81C141.12,-325.79 139.2,-316.05 137.43,-307.07"/>
<polygon fill="black" stroke="black" points="140.82,-306.16 135.45,-297.03 133.95,-307.52 140.82,-306.16"/>
</g>
<!-- repoMD -->
<g id="node4" class="node">
<title>repoMD</title>
<ellipse fill="none" stroke="black" cx="48.1" cy="-192" rx="48.19" ry="18"/>
<text text-anchor="middle" x="48.1" y="-188.3" font-family="Times,serif" font-size="14.00">repoMD</text>
</g>
<!-- URLs&#45;&gt;repoMD -->
<g id="edge3" class="edge">
<title>URLs&#45;&gt;repoMD</title>
<path fill="none" stroke="black" d="M102.98,-268.1C90.18,-262.48 75.87,-254.27 66.1,-243 60.49,-236.53 56.58,-228.18 53.87,-220.16"/>
<polygon fill="black" stroke="black" points="57.18,-219 51.06,-210.35 50.45,-220.93 57.18,-219"/>
<text text-anchor="middle" x="92.1" y="-231.8" font-family="Times,serif" font-size="14.00">extruct</text>
</g>
<!-- URLs&#45;&gt;annotation -->
<g id="edge7" class="edge">
<title>URLs&#45;&gt;annotation</title>
<path fill="none" stroke="black" d="M133.32,-260.87C135.05,-240.09 138.84,-204.11 146.1,-174 149.48,-159.98 154.67,-144.81 159.37,-132.36"/>
<polygon fill="black" stroke="black" points="162.63,-133.62 162.98,-123.03 156.11,-131.09 162.63,-133.62"/>
<text text-anchor="middle" x="181.6" y="-188.3" font-family="Times,serif" font-size="14.00">crawlURL</text>
</g>
<!-- triplestore -->
<g id="node5" class="node">
<title>triplestore</title>
<ellipse fill="none" stroke="black" cx="170.1" cy="-18" rx="59.59" ry="18"/>
<text text-anchor="middle" x="170.1" y="-14.3" font-family="Times,serif" font-size="14.00">triplestore</text>
</g>
<!-- repoMD&#45;&gt;triplestore -->
<g id="edge4" class="edge">
<title>repoMD&#45;&gt;triplestore</title>
<path fill="none" stroke="black" d="M43.99,-173.73C39.79,-151.85 35.94,-113.76 52.1,-87 67.11,-62.14 94.87,-45.49 119.7,-34.88"/>
<polygon fill="black" stroke="black" points="121.08,-38.1 129.04,-31.11 118.45,-31.61 121.08,-38.1"/>
<text text-anchor="middle" x="76.6" y="-101.3" font-family="Times,serif" font-size="14.00">import</text>
</g>
<!-- repoMD&#45;&gt;annotation -->
<g id="edge8" class="edge">
<title>repoMD&#45;&gt;annotation</title>
<path fill="none" stroke="black" d="M54.37,-174.15C59.15,-163.38 66.68,-149.82 77.1,-141 87.8,-131.94 101.08,-125.1 114.22,-120"/>
<polygon fill="black" stroke="black" points="115.5,-123.25 123.73,-116.57 113.13,-116.67 115.5,-123.25"/>
<text text-anchor="middle" x="97.6" y="-144.8" font-family="Times,serif" font-size="14.00">check</text>
</g>
<!-- search -->
<g id="node6" class="node">
<title>search</title>
<ellipse fill="none" stroke="black" cx="292.1" cy="-105" rx="41.69" ry="18"/>
<text text-anchor="middle" x="292.1" y="-101.3" font-family="Times,serif" font-size="14.00">search</text>
</g>
<!-- search&#45;&gt;triplestore -->
<g id="edge5" class="edge">
<title>search&#45;&gt;triplestore</title>
<path fill="none" stroke="black" d="M271.12,-89.39C251.88,-75.98 223.11,-55.94 201.19,-40.67"/>
<polygon fill="black" stroke="black" points="203.07,-37.71 192.86,-34.86 199.07,-43.45 203.07,-37.71"/>
<text text-anchor="middle" x="256.1" y="-57.8" font-family="Times,serif" font-size="14.00">once</text>
</g>
<!-- facet -->
<g id="node7" class="node">
<title>facet</title>
<ellipse fill="none" stroke="black" cx="293.1" cy="-192" rx="33.6" ry="18"/>
<text text-anchor="middle" x="293.1" y="-188.3" font-family="Times,serif" font-size="14.00">facet</text>
</g>
<!-- facet&#45;&gt;search -->
<g id="edge6" class="edge">
<title>facet&#45;&gt;search</title>
<path fill="none" stroke="black" d="M292.89,-173.8C292.76,-162.16 292.57,-146.55 292.42,-133.24"/>
<polygon fill="black" stroke="black" points="295.92,-133.13 292.3,-123.18 288.92,-133.22 295.92,-133.13"/>
<text text-anchor="middle" x="313.1" y="-144.8" font-family="Times,serif" font-size="14.00">many</text>
</g>
<!-- annotation&#45;&gt;triplestore -->
<g id="edge9" class="edge">
<title>annotation&#45;&gt;triplestore</title>
<path fill="none" stroke="black" d="M170.1,-86.8C170.1,-75.16 170.1,-59.55 170.1,-46.24"/>
<polygon fill="black" stroke="black" points="173.6,-46.18 170.1,-36.18 166.6,-46.18 173.6,-46.18"/>
<text text-anchor="middle" x="183.6" y="-57.8" font-family="Times,serif" font-size="14.00">add</text>
</g>
<!-- check -->
<g id="node9" class="node">
<title>check</title>
<ellipse fill="none" stroke="black" cx="339.1" cy="-425" rx="37.09" ry="18"/>
<text text-anchor="middle" x="339.1" y="-421.3" font-family="Times,serif" font-size="14.00">check</text>
</g>
<!-- dedup -->
<g id="node10" class="node">
<title>dedup</title>
<ellipse fill="none" stroke="black" cx="339.1" cy="-352" rx="39.79" ry="18"/>
<text text-anchor="middle" x="339.1" y="-348.3" font-family="Times,serif" font-size="14.00">dedup</text>
</g>
<!-- check&#45;&gt;dedup -->
<g id="edge11" class="edge">
<title>check&#45;&gt;dedup</title>
<path fill="none" stroke="black" d="M339.1,-406.81C339.1,-398.79 339.1,-389.05 339.1,-380.07"/>
<polygon fill="black" stroke="black" points="342.6,-380.03 339.1,-370.03 335.6,-380.03 342.6,-380.03"/>
</g>
<!-- NER -->
<g id="node11" class="node">
<title>NER</title>
<ellipse fill="none" stroke="black" cx="339.1" cy="-279" rx="32.49" ry="18"/>
<text text-anchor="middle" x="339.1" y="-275.3" font-family="Times,serif" font-size="14.00">NER</text>
</g>
<!-- dedup&#45;&gt;NER -->
<g id="edge12" class="edge">
<title>dedup&#45;&gt;NER</title>
<path fill="none" stroke="black" d="M339.1,-333.81C339.1,-325.79 339.1,-316.05 339.1,-307.07"/>
<polygon fill="black" stroke="black" points="342.6,-307.03 339.1,-297.03 335.6,-307.03 342.6,-307.03"/>
</g>
</g>
</svg>
