<?xml version="1.0" encoding="UTF-8" standalone="no"?>
<!DOCTYPE svg PUBLIC "-//W3C//DTD SVG 1.1//EN"
 "http://www.w3.org/Graphics/SVG/1.1/DTD/svg11.dtd">
<!-- Generated by graphviz version 2.43.0 (0)
 -->
<!-- Title: cliCrawl Pages: 1 -->
<svg width="426pt" height="451pt"
 viewBox="0.00 0.00 426.24 451.00" xmlns="http://www.w3.org/2000/svg" xmlns:xlink="http://www.w3.org/1999/xlink">
<g id="graph0" class="graph" transform="scale(1 1) rotate(0) translate(4 447)">
<title>cliCrawl</title>
<polygon fill="white" stroke="transparent" points="-4,4 -4,-447 422.24,-447 422.24,4 -4,4"/>
<!-- CDF -->
<g id="node1" class="node">
<title>CDF</title>
<ellipse fill="none" stroke="black" cx="244.59" cy="-425" rx="31.4" ry="18"/>
<text text-anchor="middle" x="244.59" y="-421.3" font-family="Times,serif" font-size="14.00">CDF</text>
</g>
<!-- sitemaps -->
<g id="node2" class="node">
<title>sitemaps</title>
<ellipse fill="none" stroke="black" cx="185.59" cy="-352" rx="52.79" ry="18"/>
<text text-anchor="middle" x="185.59" y="-348.3" font-family="Times,serif" font-size="14.00">sitemaps</text>
</g>
<!-- CDF&#45;&gt;sitemaps -->
<g id="edge1" class="edge">
<title>CDF&#45;&gt;sitemaps</title>
<path fill="none" stroke="black" d="M231.5,-408.24C224,-399.22 214.42,-387.69 205.96,-377.51"/>
<polygon fill="black" stroke="black" points="208.56,-375.16 199.47,-369.7 203.17,-379.63 208.56,-375.16"/>
</g>
<!-- annotation -->
<g id="node8" class="node">
<title>annotation</title>
<ellipse fill="none" stroke="black" cx="194.59" cy="-105" rx="60.39" ry="18"/>
<text text-anchor="middle" x="194.59" y="-101.3" font-family="Times,serif" font-size="14.00">annotation</text>
</g>
<!-- CDF&#45;&gt;annotation -->
<g id="edge10" class="edge">
<title>CDF&#45;&gt;annotation</title>
<path fill="none" stroke="black" d="M254.28,-407.69C261.67,-393.68 270.59,-372.69 270.59,-353 270.59,-353 270.59,-353 270.59,-191 270.59,-164.33 249.54,-142.18 229.59,-127.19"/>
<polygon fill="black" stroke="black" points="231.35,-124.15 221.18,-121.21 227.3,-129.86 231.35,-124.15"/>
<text text-anchor="middle" x="299.59" y="-275.3" font-family="Times,serif" font-size="14.00">repoMD</text>
</g>
<!-- URLs -->
<g id="node3" class="node">
<title>URLs</title>
<ellipse fill="none" stroke="black" cx="171.59" cy="-279" rx="36.29" ry="18"/>
<text text-anchor="middle" x="171.59" y="-275.3" font-family="Times,serif" font-size="14.00">URLs</text>
</g>
<!-- sitemaps&#45;&gt;URLs -->
<g id="edge2" class="edge">
<title>sitemaps&#45;&gt;URLs</title>
<path fill="none" stroke="black" d="M182.2,-333.81C180.62,-325.79 178.7,-316.05 176.93,-307.07"/>
<polygon fill="black" stroke="black" points="180.32,-306.16 174.95,-297.03 173.45,-307.52 180.32,-306.16"/>
</g>
<!-- resourceMD -->
<g id="node4" class="node">
<title>resourceMD</title>
<ellipse fill="none" stroke="black" cx="67.59" cy="-192" rx="67.69" ry="18"/>
<text text-anchor="middle" x="67.59" y="-188.3" font-family="Times,serif" font-size="14.00">resourceMD</text>
</g>
<!-- URLs&#45;&gt;resourceMD -->
<g id="edge3" class="edge">
<title>URLs&#45;&gt;resourceMD</title>
<path fill="none" stroke="black" d="M144.25,-266.79C131.69,-260.84 117.06,-252.74 105.59,-243 97.45,-236.08 89.98,-227.14 83.85,-218.73"/>
<polygon fill="black" stroke="black" points="86.56,-216.49 77.98,-210.27 80.81,-220.48 86.56,-216.49"/>
<text text-anchor="middle" x="131.59" y="-231.8" font-family="Times,serif" font-size="14.00">extruct</text>
</g>
<!-- URLs&#45;&gt;annotation -->
<g id="edge7" class="edge">
<title>URLs&#45;&gt;annotation</title>
<path fill="none" stroke="black" d="M173.88,-260.88C177.88,-231 186.15,-169.11 190.95,-133.27"/>
<polygon fill="black" stroke="black" points="194.46,-133.43 192.31,-123.05 187.52,-132.5 194.46,-133.43"/>
<text text-anchor="middle" x="221.09" y="-188.3" font-family="Times,serif" font-size="14.00">crawlURL</text>
</g>
<!-- triplestore -->
<g id="node5" class="node">
<title>triplestore</title>
<ellipse fill="none" stroke="black" cx="194.59" cy="-18" rx="59.59" ry="18"/>
<text text-anchor="middle" x="194.59" y="-14.3" font-family="Times,serif" font-size="14.00">triplestore</text>
</g>
<!-- resourceMD&#45;&gt;triplestore -->
<g id="edge4" class="edge">
<title>resourceMD&#45;&gt;triplestore</title>
<path fill="none" stroke="black" d="M64.56,-174.01C61.58,-152.08 59.65,-113.6 76.59,-87 92.19,-62.51 119.98,-45.87 144.68,-35.18"/>
<polygon fill="black" stroke="black" points="146.03,-38.4 153.96,-31.37 143.38,-31.93 146.03,-38.4"/>
<text text-anchor="middle" x="101.09" y="-101.3" font-family="Times,serif" font-size="14.00">import</text>
</g>
<!-- resourceMD&#45;&gt;annotation -->
<g id="edge8" class="edge">
<title>resourceMD&#45;&gt;annotation</title>
<path fill="none" stroke="black" d="M81.27,-174.1C90.43,-163.57 103.23,-150.31 116.59,-141 126.2,-134.31 137.29,-128.41 148.04,-123.46"/>
<polygon fill="black" stroke="black" points="149.62,-126.6 157.36,-119.36 146.8,-120.19 149.62,-126.6"/>
<text text-anchor="middle" x="137.09" y="-144.8" font-family="Times,serif" font-size="14.00">check</text>
</g>
<!-- search -->
<g id="node6" class="node">
<title>search</title>
<ellipse fill="none" stroke="black" cx="323.59" cy="-105" rx="41.69" ry="18"/>
<text text-anchor="middle" x="323.59" y="-101.3" font-family="Times,serif" font-size="14.00">search</text>
</g>
<!-- search&#45;&gt;triplestore -->
<g id="edge5" class="edge">
<title>search&#45;&gt;triplestore</title>
<path fill="none" stroke="black" d="M301.71,-89.58C281.19,-76.06 250.24,-55.67 226.88,-40.27"/>
<polygon fill="black" stroke="black" points="228.61,-37.22 218.34,-34.64 224.76,-43.07 228.61,-37.22"/>
<text text-anchor="middle" x="284.59" y="-57.8" font-family="Times,serif" font-size="14.00">once</text>
</g>
<!-- facet -->
<g id="node7" class="node">
<title>facet</title>
<ellipse fill="none" stroke="black" cx="332.59" cy="-192" rx="33.6" ry="18"/>
<text text-anchor="middle" x="332.59" y="-188.3" font-family="Times,serif" font-size="14.00">facet</text>
</g>
<!-- facet&#45;&gt;search -->
<g id="edge6" class="edge">
<title>facet&#45;&gt;search</title>
<path fill="none" stroke="black" d="M330.77,-173.8C329.54,-162.16 327.89,-146.55 326.48,-133.24"/>
<polygon fill="black" stroke="black" points="329.95,-132.75 325.41,-123.18 322.99,-133.49 329.95,-132.75"/>
<text text-anchor="middle" x="349.59" y="-144.8" font-family="Times,serif" font-size="14.00">many</text>
</g>
<!-- annotation&#45;&gt;triplestore -->
<g id="edge9" class="edge">
<title>annotation&#45;&gt;triplestore</title>
<path fill="none" stroke="black" d="M194.59,-86.8C194.59,-75.16 194.59,-59.55 194.59,-46.24"/>
<polygon fill="black" stroke="black" points="198.09,-46.18 194.59,-36.18 191.09,-46.18 198.09,-46.18"/>
<text text-anchor="middle" x="208.09" y="-57.8" font-family="Times,serif" font-size="14.00">add</text>
</g>
<!-- check -->
<g id="node9" class="node">
<title>check</title>
<ellipse fill="none" stroke="black" cx="378.59" cy="-425" rx="37.09" ry="18"/>
<text text-anchor="middle" x="378.59" y="-421.3" font-family="Times,serif" font-size="14.00">check</text>
</g>
<!-- dedup -->
<g id="node10" class="node">
<title>dedup</title>
<ellipse fill="none" stroke="black" cx="378.59" cy="-352" rx="39.79" ry="18"/>
<text text-anchor="middle" x="378.59" y="-348.3" font-family="Times,serif" font-size="14.00">dedup</text>
</g>
<!-- check&#45;&gt;dedup -->
<g id="edge11" class="edge">
<title>check&#45;&gt;dedup</title>
<path fill="none" stroke="black" d="M378.59,-406.81C378.59,-398.79 378.59,-389.05 378.59,-380.07"/>
<polygon fill="black" stroke="black" points="382.09,-380.03 378.59,-370.03 375.09,-380.03 382.09,-380.03"/>
</g>
<!-- NER -->
<g id="node11" class="node">
<title>NER</title>
<ellipse fill="none" stroke="black" cx="378.59" cy="-279" rx="32.49" ry="18"/>
<text text-anchor="middle" x="378.59" y="-275.3" font-family="Times,serif" font-size="14.00">NER</text>
</g>
<!-- dedup&#45;&gt;NER -->
<g id="edge12" class="edge">
<title>dedup&#45;&gt;NER</title>
<path fill="none" stroke="black" d="M378.59,-333.81C378.59,-325.79 378.59,-316.05 378.59,-307.07"/>
<polygon fill="black" stroke="black" points="382.09,-307.03 378.59,-297.03 375.09,-307.03 382.09,-307.03"/>
</g>
</g>
</svg>
