<?xml version="1.0" encoding="UTF-8" standalone="no"?>
<!DOCTYPE svg PUBLIC "-//W3C//DTD SVG 1.1//EN"
 "http://www.w3.org/Graphics/SVG/1.1/DTD/svg11.dtd">
<!-- Generated by graphviz version 2.43.0 (0)
 -->
<!-- Title: cliCrawl Pages: 1 -->
<svg width="307pt" height="625pt"
 viewBox="0.00 0.00 306.94 625.00" xmlns="http://www.w3.org/2000/svg" xmlns:xlink="http://www.w3.org/1999/xlink">
<g id="graph0" class="graph" transform="scale(1 1) rotate(0) translate(4 621)">
<title>cliCrawl</title>
<polygon fill="white" stroke="transparent" points="-4,4 -4,-621 302.94,-621 302.94,4 -4,4"/>
<!-- CDF -->
<g id="node1" class="node">
<title>CDF</title>
<ellipse fill="none" stroke="black" cx="149.35" cy="-599" rx="31.4" ry="18"/>
<text text-anchor="middle" x="149.35" y="-595.3" font-family="Times,serif" font-size="14.00">CDF</text>
</g>
<!-- sitemaps -->
<g id="node2" class="node">
<title>sitemaps</title>
<ellipse fill="none" stroke="black" cx="109.35" cy="-526" rx="52.79" ry="18"/>
<text text-anchor="middle" x="109.35" y="-522.3" font-family="Times,serif" font-size="14.00">sitemaps</text>
</g>
<!-- CDF&#45;&gt;sitemaps -->
<g id="edge1" class="edge">
<title>CDF&#45;&gt;sitemaps</title>
<path fill="none" stroke="black" d="M140.07,-581.53C135.24,-572.96 129.23,-562.3 123.81,-552.67"/>
<polygon fill="black" stroke="black" points="126.81,-550.87 118.85,-543.87 120.71,-554.3 126.81,-550.87"/>
</g>
<!-- annotation -->
<g id="node10" class="node">
<title>annotation</title>
<ellipse fill="none" stroke="black" cx="137.35" cy="-105" rx="60.39" ry="18"/>
<text text-anchor="middle" x="137.35" y="-101.3" font-family="Times,serif" font-size="14.00">annotation</text>
</g>
<!-- CDF&#45;&gt;annotation -->
<g id="edge12" class="edge">
<title>CDF&#45;&gt;annotation</title>
<path fill="none" stroke="black" d="M164.15,-583.08C175.89,-569.61 190.35,-548.64 190.35,-527 190.35,-527 190.35,-527 190.35,-191 190.35,-167.9 176.07,-145.88 162.34,-130.05"/>
<polygon fill="black" stroke="black" points="164.63,-127.36 155.29,-122.36 159.47,-132.09 164.63,-127.36"/>
<text text-anchor="middle" x="219.35" y="-362.3" font-family="Times,serif" font-size="14.00">repoMD</text>
</g>
<!-- URLs -->
<g id="node3" class="node">
<title>URLs</title>
<ellipse fill="none" stroke="black" cx="107.35" cy="-453" rx="36.29" ry="18"/>
<text text-anchor="middle" x="107.35" y="-449.3" font-family="Times,serif" font-size="14.00">URLs</text>
</g>
<!-- sitemaps&#45;&gt;URLs -->
<g id="edge2" class="edge">
<title>sitemaps&#45;&gt;URLs</title>
<path fill="none" stroke="black" d="M108.86,-507.81C108.64,-499.79 108.36,-490.05 108.11,-481.07"/>
<polygon fill="black" stroke="black" points="111.61,-480.93 107.83,-471.03 104.61,-481.12 111.61,-480.93"/>
</g>
<!-- js -->
<g id="node4" class="node">
<title>js</title>
<ellipse fill="none" stroke="black" cx="104.35" cy="-366" rx="27" ry="18"/>
<text text-anchor="middle" x="104.35" y="-362.3" font-family="Times,serif" font-size="14.00">js</text>
</g>
<!-- URLs&#45;&gt;js -->
<g id="edge3" class="edge">
<title>URLs&#45;&gt;js</title>
<path fill="none" stroke="black" d="M106.74,-434.8C106.33,-423.16 105.78,-407.55 105.31,-394.24"/>
<polygon fill="black" stroke="black" points="108.8,-394.05 104.95,-384.18 101.81,-394.29 108.8,-394.05"/>
<text text-anchor="middle" x="131.35" y="-405.8" font-family="Times,serif" font-size="14.00">extruct</text>
</g>
<!-- jsonld -->
<g id="node5" class="node">
<title>jsonld</title>
<ellipse fill="none" stroke="black" cx="38.35" cy="-279" rx="38.19" ry="18"/>
<text text-anchor="middle" x="38.35" y="-275.3" font-family="Times,serif" font-size="14.00">jsonld</text>
</g>
<!-- js&#45;&gt;jsonld -->
<g id="edge4" class="edge">
<title>js&#45;&gt;jsonld</title>
<path fill="none" stroke="black" d="M92,-349.73C87.09,-343.62 81.42,-336.5 76.35,-330 69.88,-321.7 62.89,-312.56 56.69,-304.38"/>
<polygon fill="black" stroke="black" points="59.39,-302.16 50.57,-296.29 53.81,-306.38 59.39,-302.16"/>
<text text-anchor="middle" x="83.35" y="-318.8" font-family="Times,serif" font-size="14.00">jq</text>
</g>
<!-- js&#45;&gt;annotation -->
<g id="edge9" class="edge">
<title>js&#45;&gt;annotation</title>
<path fill="none" stroke="black" d="M103.1,-347.6C101.53,-321.49 99.68,-270.68 105.35,-228 109.78,-194.57 120.46,-157.21 128.27,-132.75"/>
<polygon fill="black" stroke="black" points="131.64,-133.7 131.41,-123.1 124.98,-131.53 131.64,-133.7"/>
<text text-anchor="middle" x="140.85" y="-231.8" font-family="Times,serif" font-size="14.00">crawlURL</text>
</g>
<!-- ttl -->
<g id="node6" class="node">
<title>ttl</title>
<ellipse fill="none" stroke="black" cx="38.35" cy="-192" rx="27" ry="18"/>
<text text-anchor="middle" x="38.35" y="-188.3" font-family="Times,serif" font-size="14.00">ttl</text>
</g>
<!-- jsonld&#45;&gt;ttl -->
<g id="edge5" class="edge">
<title>jsonld&#45;&gt;ttl</title>
<path fill="none" stroke="black" d="M38.35,-260.8C38.35,-249.16 38.35,-233.55 38.35,-220.24"/>
<polygon fill="black" stroke="black" points="41.85,-220.18 38.35,-210.18 34.85,-220.18 41.85,-220.18"/>
<text text-anchor="middle" x="51.35" y="-231.8" font-family="Times,serif" font-size="14.00">riot</text>
</g>
<!-- triplestore -->
<g id="node7" class="node">
<title>triplestore</title>
<ellipse fill="none" stroke="black" cx="137.35" cy="-18" rx="59.59" ry="18"/>
<text text-anchor="middle" x="137.35" y="-14.3" font-family="Times,serif" font-size="14.00">triplestore</text>
</g>
<!-- ttl&#45;&gt;triplestore -->
<g id="edge6" class="edge">
<title>ttl&#45;&gt;triplestore</title>
<path fill="none" stroke="black" d="M29.02,-174.71C18.06,-153.2 3.28,-114.81 19.35,-87 33.82,-61.95 61.42,-45.31 86.29,-34.76"/>
<polygon fill="black" stroke="black" points="87.67,-37.98 95.65,-31.02 85.07,-31.48 87.67,-37.98"/>
<text text-anchor="middle" x="43.85" y="-101.3" font-family="Times,serif" font-size="14.00">import</text>
</g>
<!-- ttl&#45;&gt;annotation -->
<g id="edge10" class="edge">
<title>ttl&#45;&gt;annotation</title>
<path fill="none" stroke="black" d="M38.21,-173.94C38.98,-163.35 41.63,-150.08 49.35,-141 57.25,-131.7 67.97,-124.85 79.2,-119.81"/>
<polygon fill="black" stroke="black" points="80.74,-122.97 88.71,-115.99 78.13,-116.47 80.74,-122.97"/>
<text text-anchor="middle" x="69.85" y="-144.8" font-family="Times,serif" font-size="14.00">check</text>
</g>
<!-- search -->
<g id="node8" class="node">
<title>search</title>
<ellipse fill="none" stroke="black" cx="257.35" cy="-105" rx="41.69" ry="18"/>
<text text-anchor="middle" x="257.35" y="-101.3" font-family="Times,serif" font-size="14.00">search</text>
</g>
<!-- search&#45;&gt;triplestore -->
<g id="edge7" class="edge">
<title>search&#45;&gt;triplestore</title>
<path fill="none" stroke="black" d="M236.44,-89.19C217.56,-75.82 189.52,-55.96 168.08,-40.77"/>
<polygon fill="black" stroke="black" points="169.82,-37.71 159.64,-34.79 165.77,-43.42 169.82,-37.71"/>
<text text-anchor="middle" x="221.35" y="-57.8" font-family="Times,serif" font-size="14.00">once</text>
</g>
<!-- facet -->
<g id="node9" class="node">
<title>facet</title>
<ellipse fill="none" stroke="black" cx="257.35" cy="-192" rx="33.6" ry="18"/>
<text text-anchor="middle" x="257.35" y="-188.3" font-family="Times,serif" font-size="14.00">facet</text>
</g>
<!-- facet&#45;&gt;search -->
<g id="edge8" class="edge">
<title>facet&#45;&gt;search</title>
<path fill="none" stroke="black" d="M257.35,-173.8C257.35,-162.16 257.35,-146.55 257.35,-133.24"/>
<polygon fill="black" stroke="black" points="260.85,-133.18 257.35,-123.18 253.85,-133.18 260.85,-133.18"/>
<text text-anchor="middle" x="277.35" y="-144.8" font-family="Times,serif" font-size="14.00">many</text>
</g>
<!-- annotation&#45;&gt;triplestore -->
<g id="edge11" class="edge">
<title>annotation&#45;&gt;triplestore</title>
<path fill="none" stroke="black" d="M137.35,-86.8C137.35,-75.16 137.35,-59.55 137.35,-46.24"/>
<polygon fill="black" stroke="black" points="140.85,-46.18 137.35,-36.18 133.85,-46.18 140.85,-46.18"/>
<text text-anchor="middle" x="150.85" y="-57.8" font-family="Times,serif" font-size="14.00">add</text>
</g>
</g>
</svg>
